<svg width="285" height="147" viewBox="0 0 285 147" fill="none" xmlns="http://www.w3.org/2000/svg">
<path d="M140.367 0C143.138 0.000192948 145.385 2.24652 145.385 5.01758V67.7842C151.803 68.2097 158.011 69.4053 163.917 71.2783L187.925 13.3779C188.986 10.8181 191.922 9.60364 194.481 10.665C197.041 11.7265 198.257 14.6619 197.195 17.2217L173.271 74.9209C179.42 77.7832 185.138 81.4168 190.301 85.6973L233.538 42.2197C235.492 40.255 238.669 40.2463 240.634 42.2002C242.598 44.1541 242.608 47.3309 240.654 49.2959L197.607 92.582C202.228 97.5251 206.219 103.064 209.451 109.071L265.164 85.8691C267.722 84.8043 270.659 86.0142 271.725 88.5723C272.79 91.1304 271.579 94.0673 269.021 95.1328L213.632 118.201C215.905 124.143 217.478 130.431 218.251 136.964H279.678C282.449 136.964 284.695 139.211 284.695 141.981C284.695 144.753 282.449 146.999 279.678 146.999H5.01758C2.24631 146.999 0 144.753 0 141.981C0.000239131 139.21 2.24645 136.964 5.01758 136.964H61.9502C62.7287 130.385 64.3193 124.054 66.6182 118.075L12.0752 94.8789C9.52522 93.7942 8.33732 90.848 9.42188 88.2979C10.5066 85.7479 13.4529 84.56 16.0029 85.6445L70.8135 108.955C74.0111 103.036 77.9438 97.573 82.4912 92.6895L39.6445 49.1494C37.7009 47.1741 37.726 43.9975 39.7012 42.0537C41.6764 40.1101 44.8532 40.1361 46.7969 42.1113L89.7832 85.7939C94.9179 81.5198 100.605 77.8865 106.722 75.0176L82.7441 17.3564C81.6804 14.7978 82.8916 11.861 85.4502 10.7969C88.009 9.733 90.9457 10.9452 92.0098 13.5039L116.063 71.3477C122.199 69.3818 128.662 68.1493 135.35 67.751V5.01758C135.35 2.24647 137.596 0.000107181 140.367 0ZM140.102 77.6436C105.349 77.6436 76.6267 103.462 72.0674 136.964H208.135C203.576 103.462 174.854 77.6439 140.102 77.6436Z" fill="#3D333D"/>
</svg>
