<svg width="1329" height="234" viewBox="0 0 1329 234" fill="none" xmlns="http://www.w3.org/2000/svg">
<path d="M140.367 43.0709C143.138 43.0711 145.385 45.3174 145.385 48.0885V110.855C151.803 111.281 158.011 112.476 163.917 114.349L187.925 56.4489C188.986 53.889 191.922 52.6746 194.481 53.736C197.041 54.7975 198.257 57.7328 197.195 60.2926L173.271 117.992C179.42 120.854 185.138 124.488 190.301 128.768L233.538 85.2906C235.492 83.3259 238.669 83.3172 240.634 85.2711C242.598 87.2251 242.608 90.4018 240.654 92.3668L197.607 135.653C202.228 140.596 206.219 146.135 209.451 152.142L265.164 128.94C267.722 127.875 270.659 129.085 271.725 131.643C272.79 134.201 271.579 137.138 269.021 138.204L213.632 161.272C215.905 167.214 217.478 173.502 218.251 180.035H279.678C282.449 180.035 284.695 182.281 284.695 185.052C284.695 187.823 282.449 190.07 279.678 190.07H5.01758C2.24631 190.07 0 187.824 0 185.052C0.000239131 182.281 2.24645 180.035 5.01758 180.035H61.9502C62.7287 173.455 64.3193 167.125 66.6182 161.146L12.0752 137.95C9.52522 136.865 8.33732 133.919 9.42188 131.369C10.5066 128.819 13.4529 127.631 16.0029 128.715L70.8135 152.026C74.0111 146.107 77.9438 140.644 82.4912 135.76L39.6445 92.2203C37.7009 90.2451 37.726 87.0684 39.7012 85.1246C41.6764 83.1811 44.8532 83.2071 46.7969 85.1823L89.7832 128.865C94.9179 124.591 100.605 120.957 106.722 118.089L82.7441 60.4274C81.6804 57.8687 82.8916 54.9319 85.4502 53.8678C88.009 52.8039 90.9457 54.0161 92.0098 56.5748L116.063 114.419C122.199 112.453 128.662 111.22 135.35 110.822V48.0885C135.35 45.3174 137.596 43.071 140.367 43.0709ZM140.102 120.714C105.349 120.714 76.6267 146.533 72.0674 180.035H208.135C203.576 146.533 174.854 120.715 140.102 120.714Z" fill="#3D333D"/>
<path d="M1231.11 233.141C1226.42 233.141 1223.29 232.88 1217.29 231.837V214.104C1221.72 214.625 1223.81 214.886 1227.72 214.886C1238.67 214.886 1250.67 208.106 1256.41 185.157L1202.42 53.4607H1225.89L1266.84 159.339H1267.36L1306.48 53.4607H1328.9L1275.18 190.372C1261.88 224.013 1249.1 233.141 1231.11 233.141Z" fill="#3D333D"/>
<path d="M1132.3 190.112C1105.44 190.112 1088.49 174.725 1088.49 152.298C1088.49 121.786 1110.92 113.441 1145.34 107.182C1168.03 103.01 1178.46 100.402 1178.46 87.3626C1178.46 76.9313 1172.73 67.8038 1150.82 67.8038C1125.52 67.8038 1118.22 75.3666 1116.92 94.6646H1095.01C1096.32 69.1078 1112.48 49.549 1151.6 49.549C1176.38 49.549 1198.8 59.9803 1198.8 92.5783V156.47C1198.8 166.902 1200.37 172.117 1205.58 172.117C1206.37 172.117 1207.15 172.117 1208.71 171.857V186.461C1205.32 187.243 1202.19 187.764 1198.54 187.764C1187.07 187.764 1180.03 183.331 1178.72 166.902H1178.2C1169.6 181.245 1154.47 190.112 1132.3 190.112ZM1134.39 171.857C1159.43 171.857 1178.46 160.643 1178.46 135.086V113.963C1174.55 118.135 1161.51 121.525 1147.17 124.394C1121.35 129.61 1110.4 135.868 1110.4 151.255C1110.4 164.294 1117.18 171.857 1134.39 171.857Z" fill="#3D333D"/>
<path d="M1013.24 190.112C979.864 190.112 953.264 163.772 953.264 119.961C953.264 76.1489 979.864 49.8097 1013.24 49.8097C1034.63 49.8097 1047.15 59.198 1054.97 70.6725H1055.49V0H1076.35V186.461H1055.49V170.031H1054.97C1047.15 180.202 1034.63 190.112 1013.24 190.112ZM1015.33 171.857C1040.1 171.857 1055.49 151.255 1055.49 119.961C1055.49 88.6666 1040.1 68.0646 1015.33 68.0646C987.948 68.0646 975.17 93.8822 975.17 119.961C975.17 146.039 987.948 171.857 1015.33 171.857Z" fill="#3D333D"/>
<path d="M920.613 98.8372C920.613 81.6254 912.529 68.0646 891.666 68.0646C868.195 68.0646 852.548 82.9293 852.548 103.531V186.461H831.686V53.4607H852.548V69.3686H853.07C860.111 59.9803 874.193 49.8098 896.882 49.8098C921.134 49.8098 941.476 63.1097 941.476 93.6215V186.461H920.613V98.8372Z" fill="#3D333D"/>
<path d="M746.617 190.112C722.365 190.112 702.023 176.812 702.023 146.3V53.4607H722.886V141.084C722.886 158.296 730.97 171.857 751.833 171.857C775.304 171.857 790.951 156.992 790.951 136.39V53.4607H811.814V186.461H790.951V170.553H790.429C783.388 179.941 769.306 190.112 746.617 190.112Z" fill="#3D333D"/>
<path d="M637.766 190.112C599.431 190.112 578.829 169.51 578.047 142.127H599.953C600.996 158.296 610.384 171.857 637.766 171.857C663.323 171.857 669.321 160.121 669.321 149.951C669.321 131.696 650.284 129.87 633.855 126.219C610.645 121.004 583.263 114.745 583.263 87.1019C583.263 64.6745 601.257 49.8098 631.768 49.8098C666.192 49.8098 683.925 68.5862 686.011 91.5352H664.106C662.019 81.3646 656.804 68.0646 632.029 68.0646C613.253 68.0646 605.168 75.6274 605.168 86.3195C605.168 101.706 622.119 103.27 640.635 107.443C664.366 112.919 691.227 119.7 691.227 149.168C691.227 174.204 671.668 190.112 637.766 190.112Z" fill="#3D333D"/>
<path d="M514.793 190.112C493.409 190.112 480.891 180.723 473.068 169.249H472.546V232.619H451.684V53.4607H472.546V69.8901H473.068C480.891 59.7196 493.409 49.8098 514.793 49.8098C548.174 49.8098 574.774 76.1489 574.774 119.961C574.774 163.772 548.174 190.112 514.793 190.112ZM512.707 171.857C540.089 171.857 552.868 146.039 552.868 119.961C552.868 93.8823 540.089 68.0646 512.707 68.0646C487.933 68.0646 472.546 88.6666 472.546 119.961C472.546 151.255 487.933 171.857 512.707 171.857Z" fill="#3D333D"/>
<path d="M366.289 189.721C342.036 189.721 321.695 176.421 321.695 145.91V53.0704H342.558V140.694C342.558 157.906 350.642 171.466 371.505 171.466C394.976 171.466 410.623 156.602 410.623 136V53.0704H431.485V186.07H410.623V170.162H410.101C403.06 179.551 388.978 189.721 366.289 189.721Z" fill="#3D333D"/>
</svg>
